<svg width="115" height="24" viewBox="0 0 115 24" fill="none" xmlns="http://www.w3.org/2000/svg">
<g clip-path="url(#clip0_280_47)">
<path d="M32.1283 5.83587C31.726 5.83587 31.4387 6.12126 31.4387 6.52081V19.8962C30.4616 20.0864 29.3696 20.2957 28.2967 20.2957C25.9402 20.2957 25.1548 19.4205 25.1548 16.89V6.53983C25.1548 6.14029 24.8674 5.85489 24.5608 5.85489H21.0166V16.871C21.0166 22.0461 23.7754 23.7014 28.1818 23.7014C31.726 23.7014 35.2511 22.7311 35.5577 22.6359V5.85489H32.1283V5.83587ZM86.2695 23.4921C86.5569 23.4921 86.9592 23.2067 86.9592 22.8072V9.33667C87.9363 9.14641 89.0283 8.93712 90.1011 8.93712C92.4576 8.93712 93.2431 9.81233 93.2431 12.3428V22.7881C93.2431 23.1877 93.5305 23.4731 93.837 23.4731H97.3813V12.3428C97.3813 7.1677 94.6225 5.51242 90.2161 5.51242C86.6718 5.51242 83.1467 6.48275 82.8402 6.57788V23.4541H86.2695V23.4921ZM72.1116 5.53145C67.4944 5.53145 64.6399 7.96679 64.6399 13.3322V15.9578C64.6399 21.8178 67.7818 23.7585 71.1153 23.7585C72.7821 23.7585 74.5447 22.5789 75.0428 21.9129V22.9784C75.0428 23.2638 75.3301 23.5682 75.6367 23.5682C75.6367 23.5682 79.066 23.5682 79.1809 23.5682V6.50178C79.2767 6.52081 75.8474 5.53145 72.1116 5.53145ZM75.1577 19.1922C74.3722 19.8771 73.7783 20.2577 72.1116 20.2577C69.7551 20.3528 68.778 18.8878 68.778 15.8626V13.4273C68.778 10.0216 70.0616 9.03225 72.1116 9.03225C73.7783 9.03225 74.7554 9.12738 75.1577 9.22251V19.1922ZM107.784 5.53145C103.167 5.53145 100.312 7.96679 100.312 13.3322V15.9578C100.312 21.8178 103.454 23.7585 106.903 23.7585C108.57 23.7585 110.332 22.5789 110.83 21.9129V22.9784C110.83 23.2638 111.118 23.5682 111.424 23.5682C111.424 23.5682 114.854 23.5682 114.969 23.5682V6.50178C114.949 6.52081 111.52 5.53145 107.784 5.53145ZM110.83 19.1922C110.045 19.8771 109.451 20.2577 107.784 20.2577C105.428 20.2577 104.451 18.8878 104.451 15.8626V13.4273C104.451 9.90745 105.734 9.03225 107.784 9.03225C109.451 9.03225 110.428 9.12738 110.83 9.22251V19.1922ZM0 23.4921C0.593905 23.4921 3.73585 23.4921 3.73585 23.4921C4.02323 23.4921 4.32976 23.2067 4.32976 22.9023V13.1419H11.2076C12.3954 13.1419 13.1809 14.0171 13.1809 14.9874V22.8833C13.1809 23.1687 13.4682 23.4731 13.7748 23.4731C13.7748 23.4731 17.319 23.4731 17.5106 23.4731C17.5106 23.4731 17.5106 0.451475 17.5106 0.242188H13.7556C13.4682 0.242188 13.1617 0.52758 13.1617 0.831998V9.62206H6.09232C5.11525 9.62206 4.42555 8.842 4.42555 7.96679V0.85102C4.32976 0.660759 4.13818 0.261215 3.73585 0.261215H0C0 0.470502 0 23.4921 0 23.4921ZM55.3098 5.53145C53.3365 5.53145 51.4782 6.31152 50.5969 6.90133C49.3133 5.931 47.5507 5.53145 45.3858 5.53145C42.1481 5.53145 39.3893 6.50178 39.0062 6.71107V23.5872H42.5504C42.9527 23.5872 43.1443 23.3018 43.1443 22.9023V9.33667C44.0256 9.14641 44.7153 9.05128 45.3092 9.05128C47.7615 9.05128 48.3554 10.0216 48.3554 12.457V22.9023C48.3554 23.1877 48.5469 23.5872 48.9493 23.5872H51.8996C52.302 23.5872 52.4935 23.3018 52.4935 22.9023V9.83135C53.1832 9.33667 54.0645 9.05128 54.9458 9.05128C56.8041 9.05128 57.5896 9.92648 57.5896 12.1716V22.9023C57.5896 23.1877 57.7812 23.5872 58.1835 23.5872C58.1835 23.5872 61.4213 23.5872 61.7278 23.5872V11.5818C61.8044 7.11062 58.9499 5.53145 55.3098 5.53145Z" fill="#686775"/>
</g>
<defs>
<clipPath id="clip0_280_47">
<rect width="114.969" height="23.5163" fill="white" transform="translate(0 0.242188)"/>
</clipPath>
</defs>
</svg>
