<svg width="130" height="24" viewBox="0 0 130 24" fill="none" xmlns="http://www.w3.org/2000/svg">
<g clip-path="url(#clip0_280_49)">
<path d="M129.548 16.7265H123.371L123.372 22.8921H113.539V16.7265H107.36V6.89493H113.539V0.729309H123.371V6.89493H129.548V16.7265Z" fill="#686775"/>
<path d="M117.045 9.2354C117.451 9.238 117.776 9.12123 117.966 8.92402C118.208 8.67751 118.226 8.30644 117.893 7.89905C117.303 7.17768 117.813 6.48745 118.434 6.5108C119.053 6.53675 119.566 7.17768 118.978 7.89905C118.642 8.30644 118.66 8.67491 118.905 8.92402C119.092 9.11863 119.42 9.238 119.826 9.238H124.021C123.579 8.28309 123.441 8.02879 122.681 7.37489C121.675 6.50561 119.8 5.7038 118.484 5.7038C116.801 5.7038 115.279 6.38625 114.177 7.48647C113.672 7.98987 113.259 8.5815 112.954 9.2354H117.045ZM114.673 16.5218C115.064 15.79 116.767 12.6217 117.3 11.6279C117.891 10.5225 117.246 10.0606 116.374 10.0087C115.56 9.96196 114.236 9.74399 112.751 9.71026C112.52 10.3538 112.392 11.057 112.392 11.781C112.392 13.696 113.282 15.406 114.673 16.5218ZM121.865 16.8383C121.865 16.8383 119.126 12.8864 118.975 12.6295C118.819 12.3752 118.689 12.2169 118.432 12.2169C118.174 12.2169 118.044 12.3726 117.891 12.6295C117.755 12.8552 115.55 16.0521 115.037 16.7942C116.018 17.4689 117.204 17.8581 118.484 17.8581C119.763 17.8581 120.9 17.4819 121.865 16.8383ZM124.575 11.781C124.575 11.0492 124.447 10.3486 124.211 9.69988C122.687 9.72583 121.324 9.95937 120.494 10.0087C119.618 10.0606 118.975 10.525 119.563 11.6279C120.159 12.7307 122.138 16.4283 122.216 16.584C123.651 15.4708 124.575 13.7349 124.575 11.7836V11.781Z" fill="#0D172A"/>
<path d="M13.8507 18.7087H5.69969L4.06897 22.889H0.256165L7.73613 4.27606H12.0145L19.5257 22.8916H15.4788L13.8481 18.7113L13.8507 18.7087ZM12.6283 15.4858L9.77518 8.1398L6.92208 15.4858H12.6283ZM20.9743 8.98054H24.5245V10.9552C25.2527 9.47356 26.6493 8.60169 28.4829 8.60169C31.6845 8.60169 33.7522 10.8385 33.7522 14.4687V22.8916H30.2021V14.9928C30.2021 13.1038 29.1253 11.9127 27.3776 11.9127C25.6298 11.9127 24.5245 13.1038 24.5245 14.9928V22.8916H20.9743V8.98054ZM35.063 8.98054H37.5078V5.37888H41.1177V8.98054H44.8447V12.1151H41.1177V18.0392C41.1177 19.3444 41.6431 19.9542 42.6886 19.9542C43.357 19.9542 43.9994 19.6636 44.3479 19.2588L45.9214 21.9003C45.1646 22.6554 43.8538 23.2652 42.1372 23.2652C39.3153 23.2652 37.5104 21.5241 37.5104 18.1248V12.1125H35.0656V8.97794L35.063 8.98054ZM47.651 2.91117H51.2011V10.9552C51.9293 9.47356 53.326 8.60169 55.1596 8.60169C58.3612 8.60169 60.4288 10.8385 60.4288 14.4687V22.8916H56.8787V14.9928C56.8787 13.1038 55.802 11.9127 54.0542 11.9127C52.3065 11.9127 51.2011 13.1038 51.2011 14.9928V22.8916H47.651V2.91117ZM62.3534 15.9218C62.3534 11.8842 65.3522 8.60428 69.3679 8.60428C73.3835 8.60428 76.4109 11.6532 76.4109 15.6623C76.4109 16.1268 76.3823 16.6795 76.3225 16.9104H65.9894C66.3665 18.828 67.823 20.1618 69.9478 20.1618C71.3731 20.1618 72.5669 19.552 73.3835 18.7113L75.2171 21.1504C74.1404 22.3415 72.1611 23.2704 69.8334 23.2704C65.4952 23.2704 62.3534 19.9879 62.3534 15.9244V15.9218ZM66.0804 14.4401H72.7463C72.3094 12.5822 71.0584 11.5936 69.4277 11.5936C67.797 11.5936 66.5174 12.7561 66.0804 14.4401ZM78.3953 22.8916V8.98054H81.9454V11.1005C82.6737 9.59033 84.0417 8.60169 85.8753 8.60169C88.0002 8.60169 89.6309 9.64741 90.4449 11.5053C91.1732 9.84981 92.5126 8.60169 94.7233 8.60169C97.9535 8.60169 100.078 10.7502 100.078 14.4687V22.8916H96.4971V14.9928C96.4971 13.1038 95.4489 11.9127 93.761 11.9127C92.0731 11.9127 90.9963 13.1038 90.9963 14.9928V22.8916H87.4462V14.9928C87.4462 13.1038 86.3981 11.9127 84.7101 11.9127C83.0222 11.9127 81.9454 13.1038 81.9454 14.9928V22.8916H78.3953Z" fill="#686775"/>
</g>
<defs>
<clipPath id="clip0_280_49">
<rect width="129.291" height="22.5411" fill="white" transform="translate(0.256012 0.729431)"/>
</clipPath>
</defs>
</svg>
