<svg width="122" height="38" viewBox="0 0 122 38" fill="none" xmlns="http://www.w3.org/2000/svg">
<g clip-path="url(#clip0_280_51)">
<path d="M6.89068 36.1545C8.11385 36.5756 9.39718 36.7961 10.7006 36.7761C16.4354 36.7761 20.4258 32.6253 20.4258 24.7248V1.16379L22.6114 0.121094V25.1259C22.6114 33.1868 18.4607 37.8789 12.5654 37.8789C10.5201 37.8789 8.55499 37.2774 6.89068 36.1545ZM4.38419 33.7482C5.70762 34.1894 7.03105 34.4701 8.19406 34.4701C13.0065 34.4701 16.2148 31.4422 16.2148 24.6246V2.96847L18.3604 1.94582V24.805C18.3604 31.9435 14.731 35.613 9.69796 35.613C7.85318 35.613 5.96829 34.9313 4.38419 33.7482ZM2.88029 31.6227C3.90294 31.9636 4.98575 32.1441 6.06855 32.1842C9.81827 32.1842 12.1242 30.1389 12.1242 24.7449V4.77315L14.2297 3.7505V24.404C14.2297 30.4597 11.4625 33.1868 7.49224 33.1868C5.80788 33.2068 4.18367 32.6454 2.88029 31.6227ZM10.119 25.3264V5.61533L0.834991 9.80618V25.8076C0.834991 28.8555 2.75998 30.9008 5.58731 30.9008C8.41463 30.9008 10.119 28.8154 10.119 25.3264ZM34.5423 5.57522V12.9142C34.5423 15.6213 36.1465 17.7468 39.2144 17.7468C41.8412 17.7468 43.8264 15.8017 43.8264 12.8541V5.75569C43.8063 4.97367 44.4079 4.31195 45.1899 4.2919H45.21L45.4907 4.27185V3.57003H40.8787V4.27185L41.1795 4.2919C41.9616 4.31195 42.5832 4.95361 42.5631 5.73564V5.75569V12.6335C42.5631 14.8793 41.4001 16.2429 39.5754 16.2429C37.7506 16.2429 36.6478 14.7991 36.6478 12.6135V5.55517C36.6478 4.7932 37.0689 4.332 37.9311 4.2919L38.2118 4.27185V3.57003H32.9582V4.27185L33.259 4.2919C34.1212 4.37211 34.5423 4.7932 34.5423 5.57522ZM40.7785 21.2559L41.0793 21.2759C41.8212 21.316 42.3626 21.6168 42.3626 22.4389V26.7501H37.1691V22.4389C37.1691 21.5967 37.7306 21.3361 38.4525 21.2759L38.7332 21.2559V20.554H33.4796V21.2559L33.7804 21.2759C34.5223 21.316 35.0637 21.6168 35.0637 22.4389V32.5451C35.0637 33.3873 34.5022 33.668 33.7804 33.7081L33.4796 33.7282V34.43H38.7332V33.7282L38.4525 33.7081C37.7105 33.648 37.1691 33.3672 37.1691 32.5451V27.8329H42.3425V32.5451C42.3425 33.3873 41.7811 33.668 41.0592 33.7081L40.7584 33.7282V34.43H46.012V33.7282L45.7313 33.7081C45.0094 33.648 44.448 33.3672 44.448 32.5451V22.4389C44.448 21.5967 45.0094 21.3361 45.7313 21.2759L46.012 21.2559V20.554H40.7785V21.2559ZM45.4907 7.66063V8.32234L45.8917 8.34239C46.4933 8.3825 46.8743 8.68328 46.8743 9.50541V15.6012C46.8743 16.4233 46.4532 16.7241 45.7915 16.7642L45.4907 16.7843V17.466H50.1829V16.7843L49.9021 16.7642C49.2204 16.7241 48.8193 16.4233 48.8193 15.6012V12.3528C48.8594 9.9666 49.8821 8.54291 51.1052 8.54291C52.0276 8.54291 52.6492 9.18457 52.6492 10.4077V15.5812C52.6492 16.4033 52.2282 16.7041 51.5664 16.7442L51.2657 16.7642V17.446H55.9578V16.7642L55.6771 16.7442C54.9953 16.7041 54.5943 16.4033 54.5943 15.5812V10.1671C54.5943 8.62312 53.6518 7.3398 51.767 7.3398C50.4435 7.3398 49.2805 8.14188 48.8394 9.54551V7.3799L45.4907 7.66063ZM72.5809 17.6666C74.5861 17.6666 75.709 16.303 76.1702 14.759L75.308 14.5184C74.9069 15.5811 74.2252 16.4233 72.8416 16.4233C71.2374 16.4233 70.1546 14.8994 70.1546 12.4731H76.3105V11.8916C76.3105 9.345 74.8066 7.27964 72.3804 7.27964C69.7937 7.27964 68.0692 9.76608 68.0692 12.4731C68.0692 15.1801 69.7335 17.6666 72.5809 17.6666ZM72.3603 8.40255C73.4431 8.40255 74.1449 9.4252 74.2252 11.4906H70.1747C70.3752 9.58562 71.1773 8.40255 72.3603 8.40255ZM62.8356 15.2403C62.8356 16.7843 63.758 17.6666 65.2619 17.6666C66.6455 17.6666 67.5679 16.6439 67.9689 15.2002L67.2471 14.9996C66.9663 15.8418 66.5051 16.3431 65.8835 16.3431C65.0414 16.3431 64.7807 15.7416 64.7807 15.0197V8.60307H67.4877V7.58042H64.7807V4.53252H63.7981C63.4171 6.8385 62.2541 7.66063 61.031 7.9213V8.62312H62.8557L62.8356 15.2403ZM58.6849 5.7958C59.4067 5.77575 59.9682 5.15413 59.9482 4.43226C59.9281 3.7505 59.3666 3.20909 58.6849 3.16899C57.9831 3.16899 57.4216 3.7505 57.4216 4.45232C57.3815 5.19424 57.943 5.77575 58.6849 5.7958C58.6648 5.7958 58.6648 5.7958 58.6849 5.7958ZM57.7625 9.50541V15.6012C57.7625 16.4233 57.3414 16.7241 56.6797 16.7642L56.3789 16.7843V17.466H61.0711V16.7843L60.7903 16.7642C60.1086 16.7241 59.7075 16.4233 59.7075 15.6012V7.39995L56.2786 7.66063V8.32234L56.7799 8.34239C57.3815 8.34239 57.7625 8.66322 57.7625 9.50541ZM81.3636 17.6666C82.667 17.6666 83.6897 16.9848 84.1108 15.8418V17.466H87.4193V16.8043L87.1386 16.7843C86.4568 16.7442 86.0558 16.4434 86.0558 15.6213V3.32941L82.6871 3.63019V4.2919L83.1282 4.31195C83.7298 4.332 84.1108 4.65283 84.1108 5.47497V9.04421C83.6696 7.94136 82.667 7.27964 81.3636 7.27964C78.7769 7.27964 77.2931 9.76608 77.2931 12.4731C77.2931 15.1801 78.7569 17.6666 81.3636 17.6666ZM81.6845 8.40255C83.1483 8.40255 84.1108 9.98666 84.1108 12.453C84.1108 14.9194 83.1683 16.5035 81.6845 16.5035C80.3009 16.5035 79.3785 14.9395 79.3785 12.453C79.3785 9.9666 80.3009 8.40255 81.6845 8.40255ZM110.84 24.2837C109.697 24.2837 108.694 25.0457 108.273 26.3892V24.3639L104.945 24.6246V25.2863L105.346 25.3064C105.947 25.3465 106.328 25.6472 106.328 26.4694V32.5652C106.328 33.4073 105.927 33.6881 105.246 33.7282L104.945 33.7482V34.43H109.637V33.7482L109.356 33.7282C108.674 33.6881 108.273 33.3873 108.273 32.5652V29.2365C108.313 26.7701 109.376 25.2061 110.7 25.2061C110.94 25.186 111.181 25.2863 111.361 25.4668C111.02 25.6472 110.8 26.0082 110.8 26.3892C110.8 26.9707 111.261 27.4319 111.843 27.4319C112.424 27.4319 112.885 26.9506 112.885 26.2889C112.885 25.0657 111.943 24.2837 110.84 24.2837ZM117.217 24.2436C114.63 24.2436 112.905 26.71 112.905 29.4371C112.905 32.1641 114.57 34.6305 117.417 34.6305C119.422 34.6305 120.545 33.267 121.006 31.723L120.144 31.4823C119.743 32.5451 119.061 33.3873 117.678 33.3873C116.074 33.3873 114.991 31.8633 114.991 29.4371H121.147V28.8555C121.147 26.3089 119.643 24.2436 117.217 24.2436ZM115.011 28.4545C115.211 26.5295 115.993 25.3665 117.196 25.3665C118.279 25.3665 118.981 26.3892 119.061 28.4545H115.011ZM103.26 32.7857V27.6123C103.26 25.4868 101.937 24.2436 99.6911 24.2436C97.7661 24.2436 96.0617 25.5069 96.0617 26.9506C96.0417 27.5321 96.5029 28.0134 97.0844 28.0134C97.6659 28.0134 98.1471 27.5722 98.1471 26.9907C98.1471 26.6097 97.9466 26.2488 97.6057 26.0683C97.9667 25.567 98.5883 25.2662 99.3703 25.2662C100.593 25.2662 101.315 26.1686 101.315 27.6925V28.1537L98.3878 29.3769C96.4227 30.179 95.7609 30.9008 95.7609 32.1842C95.7609 33.668 96.8237 34.6105 98.5081 34.6105C99.7513 34.6105 100.854 33.8284 101.295 32.6654V32.9662C101.295 33.9888 102.017 34.5904 103.2 34.5904C103.621 34.5904 104.042 34.5302 104.443 34.4099V33.7482C103.621 33.8485 103.26 33.5276 103.26 32.7857ZM101.315 30.5399C101.215 32.2844 100.353 33.4474 99.1297 33.4474C98.2674 33.4474 97.706 32.8459 97.706 31.9435C97.706 31.1415 98.1471 30.4998 98.9693 30.1389L101.315 29.0962V30.5399ZM75.4483 31.9636C75.1676 32.7857 74.7264 33.3071 74.0848 33.3071C73.2426 33.3071 72.9819 32.7055 72.9819 31.9836V25.567H75.6889V24.5444H72.9819V21.4965H71.9994C71.6184 23.8025 70.4554 24.6246 69.2322 24.8853V25.5871H71.0569V32.2042C71.0569 33.7482 71.9793 34.6305 73.4832 34.6305C74.8668 34.6305 75.7892 33.6079 76.1902 32.1641L75.4483 31.9636ZM62.8757 32.7857V27.6123C62.8757 25.4868 61.5523 24.2436 59.3065 24.2436C57.3815 24.2436 55.6771 25.5069 55.6771 26.9506C55.657 27.5321 56.1182 28.0134 56.6997 28.0134C57.2812 28.0134 57.7625 27.5722 57.7625 26.9907C57.7625 26.6097 57.562 26.2488 57.2211 26.0683C57.582 25.567 58.2036 25.2662 58.9857 25.2662C60.2088 25.2662 60.9307 26.1686 60.9307 27.6925V28.1537L58.0031 29.3769C56.038 30.179 55.3763 30.9008 55.3763 32.1842C55.3763 33.668 56.4391 34.6105 58.1234 34.6105C59.3667 34.6105 60.4695 33.8284 60.9107 32.6654V32.9662C60.9107 33.9888 61.6325 34.5904 62.8156 34.5904C63.2367 34.5904 63.6578 34.5302 64.0588 34.4099V33.7482C63.2567 33.8485 62.8757 33.5276 62.8757 32.7857ZM60.9508 30.5399C60.8505 32.2844 59.9883 33.4474 58.7651 33.4474C57.9029 33.4474 57.3414 32.8459 57.3414 31.9435C57.3414 31.1415 57.7825 30.4998 58.6047 30.1389L60.9508 29.0962V30.5399ZM91.8308 33.3672C90.2266 33.3672 89.1438 31.8433 89.1438 29.417C89.1438 26.9506 90.2066 25.3866 91.8107 25.3866C92.5326 25.3866 93.074 25.6272 93.4149 26.0683C93.1141 26.2688 92.9136 26.6097 92.9136 26.9707C92.9136 27.5522 93.3748 28.0134 93.9563 28.0134C94.5578 28.0134 94.999 27.5321 94.999 26.8704C94.999 25.6873 93.8159 24.2235 91.6904 24.2235C88.7428 24.2235 87.0383 26.6899 87.0383 29.417C87.0383 32.124 88.7027 34.6105 91.55 34.6105C93.5151 34.6105 94.618 33.3071 95.0591 31.8232L94.1969 31.5626C93.836 32.5852 93.1742 33.3672 91.8308 33.3672ZM67.8887 32.5652V20.3134L64.52 20.5941V21.2559L64.9611 21.2759C65.5627 21.296 65.9437 21.6168 65.9437 22.4389V32.5652C65.9437 33.4073 65.5226 33.6881 64.8609 33.7282L64.5601 33.7482V34.43H69.2523V33.7683L68.9715 33.7482C68.3098 33.6881 67.8887 33.3873 67.8887 32.5652ZM85.2537 32.5652V27.1511C85.2537 25.6071 84.3113 24.3238 82.4264 24.3238C81.103 24.3238 79.9399 25.1058 79.4988 26.5295V20.3134L76.1301 20.5941V21.2559L76.5712 21.2759C77.1728 21.296 77.5538 21.6168 77.5538 22.4389V32.5652C77.5538 33.4073 77.1327 33.6881 76.471 33.7282L76.1702 33.7482V34.43H80.8423V33.7683L80.5616 33.7482C79.8798 33.7081 79.4788 33.4073 79.4788 32.5852V29.3368C79.5189 26.9707 80.5415 25.5269 81.7647 25.5269C82.6871 25.5269 83.3087 26.1686 83.3087 27.3918V32.5852C83.3087 33.4274 82.8876 33.7081 82.2259 33.7482L81.9251 33.7683V34.45H86.6172V33.7683L86.3365 33.7482C85.6548 33.6881 85.2537 33.3873 85.2537 32.5652ZM50.7243 24.2436C48.1376 24.2436 46.4131 26.73 46.4131 29.4371C46.4131 32.1441 48.0774 34.6305 50.9248 34.6305C52.93 34.6305 54.0529 33.267 54.5141 31.723L53.6518 31.4823C53.2508 32.5451 52.569 33.3873 51.1855 33.3873C49.5813 33.3873 48.4985 31.8633 48.4985 29.4371H54.6544V28.8555C54.6544 26.3089 53.1305 24.2436 50.7243 24.2436ZM48.5185 28.4545C48.7191 26.5295 49.5011 25.3665 50.7042 25.3665C51.787 25.3665 52.4888 26.3892 52.569 28.4545H48.5185Z" fill="#686775"/>
</g>
<defs>
<clipPath id="clip0_280_51">
<rect width="120.312" height="37.7578" fill="white" transform="translate(0.834991 0.121094)"/>
</clipPath>
</defs>
</svg>
