<svg width="126" height="26" viewBox="0 0 126 26" fill="none" xmlns="http://www.w3.org/2000/svg">
<g clip-path="url(#clip0_280_53)">
<path d="M104.602 10.1895C105.947 9.53117 107.809 8.93724 109.605 8.93724C110.962 8.93724 111.916 9.21576 112.519 9.89646C113.115 10.5696 113.316 11.5809 113.316 12.9117V13.3032V13.5467L113.073 13.538C112.889 13.5315 112.429 13.5314 112.17 13.5314C108.862 13.5314 106.483 14.0333 104.939 14.9689C103.413 15.893 102.685 17.2493 102.685 19.0339C102.685 20.9178 103.153 22.3666 104.244 23.3506C105.34 24.3397 107.11 24.9008 109.808 24.9008C111.148 24.9008 112.482 24.8118 113.905 24.7168C113.995 24.7108 114.085 24.7048 114.175 24.6988C115.622 24.6026 117.162 24.506 118.881 24.4965C118.657 22.9552 118.651 20.8864 118.651 19.46C118.651 19.4597 118.651 19.4594 118.651 19.4591L104.602 10.1895ZM104.602 10.1895L104.402 6.50076L104.602 10.1895ZM94.1631 24.5025C94.27 22.7732 94.349 18.4296 94.349 15.9559C94.349 15.4242 94.3406 14.7073 94.3321 14.1241C94.3279 13.8324 94.3237 13.5738 94.3205 13.3881L94.3167 13.1692L94.3156 13.1101L94.3153 13.0948L94.3153 13.0939C94.3153 13.0932 94.3153 13.0925 94.3153 13.0917C94.3151 11.6538 94.1389 10.6069 93.6332 9.92123C93.1115 9.21376 92.2837 8.94399 91.1373 8.94399C90.2384 8.94399 89.4096 9.11104 88.7531 9.33452L88.598 9.38733L88.5939 9.55113C88.5264 12.2591 88.5061 14.279 88.5061 15.9481C88.4933 18.7278 88.6018 22.784 88.7408 24.4958H82.8909C82.9989 22.7668 83.0895 18.4241 83.0767 15.9484C83.0898 13.4463 83.0838 9.44241 82.8888 6.13266C84.642 6.12039 86.0995 5.9808 87.5045 5.84216L87.6221 5.83055C89.052 5.68932 90.4318 5.55305 92.0351 5.55305C94.9765 5.55305 96.9066 6.08668 98.1042 7.15947C99.2945 8.22572 99.812 9.87162 99.8122 12.2282C99.8122 12.2288 99.8122 12.2294 99.8122 12.2299L99.8121 12.2324L99.8119 12.2505L99.8108 12.3206L99.807 12.5827C99.8038 12.8064 99.7996 13.1214 99.7953 13.4861C99.7869 14.2152 99.7785 15.1441 99.7785 15.9419M99.7785 15.9419C99.7785 15.9415 99.7785 15.9411 99.7785 15.9408L100.013 15.9424H99.7785C99.7785 15.9422 99.7785 15.9421 99.7785 15.9419ZM48.7734 13.6727L48.9965 13.6869L49.0219 13.4648C49.3154 10.8898 50.1014 8.92459 51.5826 7.59914C53.0641 6.27345 55.2798 5.55305 58.5082 5.55305C61.1698 5.55305 63.0756 6.11477 64.3108 7.06442C65.537 8.00704 66.1301 9.35294 66.1301 10.9947C66.1301 12.8986 65.4123 14.2657 64.0047 15.1701C62.5785 16.0865 60.4187 16.5444 57.5093 16.5444C56.8297 16.5444 55.6658 16.5242 55.0833 16.4974L54.8375 16.4861V16.7321V16.8604C54.8375 18.264 55.3007 19.4346 56.2125 20.2517C57.121 21.0658 58.4458 21.5031 60.1215 21.5031C61.9823 21.5031 63.6892 20.9725 64.9831 20.2912L65.1835 23.9746C63.8889 24.5271 61.5284 24.9143 59.1697 24.9143C55.858 24.9143 53.4569 24.3457 51.8151 23.0527C50.1811 21.7659 49.2553 19.7258 48.9751 16.6769L48.9564 16.4728L48.7516 16.4636C47.9932 16.4298 46.8429 16.3892 45.2805 16.3756L45.0521 16.3737L45.0436 16.6019C45.0386 16.7353 45.0336 16.8669 45.0287 16.9966C44.9938 17.9209 44.9624 18.7498 44.9624 19.4591C44.9624 20.8851 44.9678 22.9544 45.1982 24.4965C43.4759 24.506 41.9346 24.6026 40.4873 24.6988C40.3961 24.7048 40.3054 24.7109 40.215 24.7169C38.7917 24.8119 37.4586 24.9008 36.1188 24.9008C33.421 24.9008 31.6509 24.3397 30.5548 23.3506C29.4644 22.3666 28.9964 20.9178 28.9964 19.0339C28.9964 17.2495 29.7259 15.8931 31.2523 14.9689C32.7977 14.0332 35.1764 13.5314 38.4813 13.5314C38.7407 13.5314 39.2071 13.5315 39.3838 13.538L39.6233 13.5469L39.6275 13.3072L39.6342 12.9157H39.6342V12.9117C39.6342 11.5809 39.433 10.5696 38.8369 9.89646C38.234 9.21576 37.2798 8.93724 35.923 8.93724C34.133 8.93724 32.2662 9.53117 30.9204 10.1895L30.7197 6.50077C32.227 5.92797 34.6324 5.5328 37.3675 5.5328C40.2698 5.5328 42.1991 6.01077 43.4075 7.08891C44.6085 8.16044 45.1514 9.87506 45.1514 12.4932C45.1514 12.6367 45.1497 12.7788 45.1481 12.9216L45.148 12.9258C45.1463 13.0667 45.1447 13.2085 45.1447 13.3504V13.5843L45.3785 13.5854C46.7951 13.5922 47.8289 13.6124 48.7734 13.6727ZM39.5397 16.5384L39.5416 16.3219L39.326 16.3024C39.1345 16.2849 38.883 16.2862 38.6637 16.2874C38.612 16.2876 38.562 16.2879 38.515 16.2879C37.1133 16.2879 36.0881 16.5205 35.4085 16.997C34.7119 17.4853 34.4123 18.2048 34.4123 19.0811C34.4123 19.9661 34.6389 20.6411 35.1844 21.0836C35.7175 21.516 36.5078 21.6853 37.5363 21.6853C38.1724 21.6853 38.9024 21.6029 39.406 21.4681L39.5929 21.4181L39.5797 21.225C39.5042 20.1218 39.5195 18.5972 39.5337 17.1767C39.5358 16.9609 39.5379 16.7475 39.5397 16.5384ZM54.8105 13.5192V13.7352L55.0258 13.7533C55.5163 13.7948 56.1805 13.8014 56.7938 13.8014C58.0877 13.8014 59.0916 13.5856 59.7766 13.0991C60.4779 12.601 60.8087 11.8462 60.8087 10.8665C60.8087 10.1557 60.5666 9.57878 60.1143 9.18274C59.6663 8.79052 59.0397 8.59975 58.3125 8.59975C57.0225 8.59975 56.1278 9.12252 55.5688 10.0125C55.0212 10.8843 54.8105 12.0844 54.8105 13.4247V13.5192ZM75.8015 9.73373H75.5665V9.96873V17.3059C75.5665 18.7236 75.7054 19.6994 76.1412 20.3161C76.5973 20.9616 77.3317 21.1588 78.3327 21.1588C78.6581 21.1588 79.0101 21.1103 79.3289 21.0292C79.4987 20.9861 79.6644 20.9323 79.8146 20.8691L80.0371 24.5047C79.4272 24.6512 78.0543 24.8873 76.247 24.8873C74.1814 24.8873 72.6473 24.4516 71.6292 23.5297C70.6159 22.6122 70.0696 21.1723 70.0696 19.0609C70.0696 15.6949 70.1303 11.9978 70.1641 9.97265L70.1681 9.73373H69.9291H68.0057C68.0164 9.32422 68.0131 8.85878 68.0075 8.39402C68.0063 8.29625 68.005 8.19852 68.0038 8.10128C67.9987 7.71258 67.9937 7.33161 67.9955 6.98705C69.5579 6.69523 70.6334 6.08705 71.3731 5.09392C72.105 4.11112 72.4867 2.77855 72.7261 1.08461H75.8438C75.7299 2.5378 75.6273 4.52057 75.6273 5.89179V6.12679H75.8623H79.4275V9.73373H75.8015ZM113.215 16.5374L113.216 16.3219L113.001 16.3024C112.81 16.2849 112.558 16.2862 112.342 16.2874C112.291 16.2876 112.243 16.2879 112.197 16.2879C110.795 16.2879 109.77 16.5205 109.091 16.997C108.394 17.4853 108.094 18.2048 108.094 19.0811C108.094 19.9656 108.319 20.6408 108.864 21.0834C109.396 21.5161 110.187 21.6853 111.218 21.6853C111.848 21.6853 112.584 21.6029 113.088 21.4681L113.276 21.4178L113.262 21.2238C113.186 20.2021 113.198 18.82 113.208 17.4918C113.211 17.1685 113.214 16.8484 113.215 16.5374Z" fill="#686775" stroke="#0D172B" stroke-width="0.47"/>
</g>
<defs>
<clipPath id="clip0_280_53">
<rect width="125.204" height="24.2997" fill="white" transform="translate(0.434082 0.850098)"/>
</clipPath>
</defs>
</svg>
