<svg width="62" height="34" viewBox="0 0 62 34" fill="none" xmlns="http://www.w3.org/2000/svg">
<g clip-path="url(#clip0_280_55)">
<path d="M39.5216 27.1011C39.5216 26.5669 39.3276 26.5355 39.3276 26.5355H39.0361C38.5507 26.5355 38.0653 26.0501 38.0653 25.5647V20.6361C38.0653 18.6468 39.2533 17.4577 40.7816 17.4577C42.0915 17.4577 43.0624 18.1846 43.0624 19.7861V25.5647C43.0624 26.0501 42.577 26.5355 42.0915 26.5355H41.8C41.8 26.5355 41.6061 26.5866 41.6061 27.0813C41.6061 27.5761 41.8 27.842 41.8 27.842H47.5253C47.5253 27.842 47.7192 27.6272 47.7192 27.1324C47.7192 26.6377 47.5253 26.5367 47.5253 26.5367H47.2338C46.7484 26.5367 46.2629 26.0513 46.2629 25.5658V19.6665C46.2629 16.8759 44.5163 15.5183 41.9928 15.5183C40.1255 15.5183 38.6936 16.3916 37.8203 17.6771C37.8203 17.6771 37.8156 16.4044 37.8156 16.2511C37.8156 15.8353 37.4161 15.6902 36.9377 15.8829C36.6148 16.013 34.9844 16.5867 33.6024 16.5867C33.5258 16.6889 33.4062 16.8956 33.4062 17.2335C33.4062 17.5308 33.4758 17.6864 33.6001 17.8897H33.8916C34.377 17.8897 34.8624 18.3751 34.8624 18.8605V25.5647C34.8624 26.0501 34.377 26.5355 33.8916 26.5355H33.6001C33.6001 26.5355 33.4062 26.5669 33.4062 27.0906C33.4062 27.6155 33.6001 27.8408 33.6001 27.8408H39.3253C39.3288 27.842 39.5216 27.6364 39.5216 27.1011Z" fill="#686775"/>
<path d="M28.9358 16.403C28.0694 15.8363 26.9836 15.5018 25.791 15.5018C22.7948 15.5018 20.5953 17.5074 20.5953 20.0216C20.5953 21.5685 21.4407 22.825 22.6009 23.5984L20.5651 26.1277C20.5651 26.1277 20.3061 26.5969 20.3061 27.0637C20.3061 27.5294 20.6023 27.8441 20.6023 27.8441H22.0458C20.9832 28.4724 20.4989 29.5187 20.4989 30.4129C20.4989 32.1525 22.0214 33.5786 25.4298 33.5786C28.8615 33.5786 32.0515 31.7658 32.0515 28.9137C32.0515 26.8837 30.8438 25.5076 27.8221 25.5076H23.2547L24.1489 24.2975C24.6564 24.4671 25.0675 24.5391 25.7921 24.5391C28.7651 24.5391 30.9878 22.5091 30.9878 20.0193C30.9878 19.2459 30.7718 18.5224 30.3909 17.8895H32.1572C32.2501 17.728 32.3512 17.5039 32.3512 17.13C32.3512 16.8373 32.242 16.5203 32.1596 16.4007H28.9358V16.403ZM24.1478 27.845H26.8548C28.4736 27.845 29.0299 28.7474 29.0299 29.6648C29.0299 30.8249 27.9185 32.0083 25.913 32.0083C24.0282 32.0083 22.9644 31.1619 22.9644 29.9054C22.9632 29.06 23.4475 28.2073 24.1478 27.845ZM25.7918 23.0421C24.4389 23.0421 23.5679 21.9063 23.5679 20.0216C23.5679 18.1368 24.4377 17.001 25.7918 17.001C27.1215 17.001 27.9913 18.1368 27.9913 20.0216C27.9913 21.9063 27.1215 23.0421 25.7918 23.0421Z" fill="#686775"/>
<path d="M11.6437 23.7818C11.2546 23.6459 10.9365 23.7655 10.9365 23.7655C10.0376 25.3263 9.22469 26.0451 7.96119 26.0451C5.6804 26.0451 4.22528 23.9838 4.22528 21.5335C4.22528 19.2527 5.24375 17.0207 7.59771 17.0207C9.07721 17.0207 10.2141 17.9428 10.2141 19.3491L10.2478 19.7857C10.2478 19.7857 10.2025 19.9797 10.818 19.9797C11.4335 19.9797 11.6007 19.7857 11.6007 19.7857L11.4788 16.6084C11.4788 16.6084 11.466 16.5248 11.4219 16.4667C11.3789 16.4098 11.3081 16.3657 11.3081 16.3657C10.3616 15.8327 9.10043 15.5168 7.62093 15.5168C4.15212 15.5168 0.926025 17.8452 0.926025 22.0433C0.926025 25.8036 3.76425 28.1808 7.01589 28.1808C10.0724 28.1808 11.4916 26.2635 12.1221 24.129C12.121 24.1267 11.9503 23.8886 11.6437 23.7818Z" fill="#686775"/>
<path d="M15.9919 14.6531C17.0997 14.6531 17.9986 13.7311 17.9986 12.5953C17.9986 11.4572 17.0997 10.5363 15.9919 10.5363C14.884 10.5363 13.9851 11.4572 13.9851 12.5953C13.9851 13.7311 14.884 14.6531 15.9919 14.6531Z" fill="#686775"/>
<path d="M17.5933 18.4201C17.5933 17.9346 18.0787 17.4492 18.5641 17.4492H18.8556C18.8556 17.4492 19.0495 17.3273 19.0495 16.857C19.0495 16.3855 18.8556 16.1439 18.8556 16.1439H13.1304C13.1304 16.1439 12.9364 16.44 12.9364 16.8976C12.9364 17.3552 13.1304 17.4492 13.1304 17.4492H13.4219C13.9073 17.4492 14.3927 17.9346 14.3927 18.4201V25.5632C14.3927 26.0486 13.9073 26.534 13.4219 26.534H13.1304C13.1304 26.534 12.9364 26.6293 12.9364 27.0868C12.9364 27.5444 13.1304 27.8405 13.1304 27.8405H18.8556C18.8556 27.8405 19.0495 27.599 19.0495 27.1275C19.0495 26.6571 18.8556 26.5352 18.8556 26.5352H18.5641C18.0787 26.5352 17.5933 26.0498 17.5933 25.5644V18.4201Z" fill="#686775"/>
<path d="M62.0004 26.0975C62.0004 25.7212 61.8064 25.6074 61.8064 25.6074H61.5149C61.0295 25.6074 60.5452 25.122 60.5452 24.6366V16.1057C60.5452 16.1057 60.5267 15.8548 60.2584 15.8548H59.5198C59.3746 15.8548 59.2632 15.9768 59.2632 15.9768L58.2342 17.3204C58.1135 17.4783 57.9753 17.3215 57.9753 17.3215V17.3227C57.2866 16.511 56.13 15.5146 54.0431 15.5146C50.9134 15.5146 47.93 17.7953 47.93 21.9679C47.93 25.8733 50.5011 28.1785 53.6552 28.1785C55.4506 28.1785 56.591 27.426 57.4887 26.2612V27.7035C57.4887 27.7035 57.5003 28.0333 57.8708 28.1146C58.2041 28.1878 58.4595 28.081 58.4595 28.081L61.8076 26.6502C61.8053 26.6514 62.0004 26.4749 62.0004 26.0975ZM54.2843 26.5784C52.1254 26.5784 51.2277 24.4439 51.2277 21.8472C51.2277 19.2517 52.1254 17.1173 54.2843 17.1173C56.4431 17.1173 57.3408 19.2517 57.3408 21.8472C57.342 24.4439 56.4443 26.5784 54.2843 26.5784Z" fill="#686775"/>
<path fill-rule="evenodd" clip-rule="evenodd" d="M14.5066 5.57156C14.5089 4.27787 15.0942 3.12354 16.0093 2.34896C16.9221 3.12703 17.5016 4.28368 17.4993 5.57737C17.497 6.87105 16.9128 8.02538 15.9966 8.79997C15.0838 8.0219 14.5043 6.86525 14.5066 5.57156ZM19.0554 2.26651C18.678 3.17232 18.7488 4.15245 19.1634 4.96304C20.0309 4.68549 20.7753 4.04561 21.1527 3.1398C21.5302 2.23399 21.4593 1.25385 21.0447 0.443269C20.1784 0.719658 19.4329 1.36069 19.0554 2.26651ZM10.852 3.11774C11.2259 4.02471 11.968 4.66807 12.8343 4.94794C13.2524 4.13852 13.3267 3.15954 12.9528 2.25141C12.5789 1.34443 11.8368 0.701076 10.9704 0.421204C10.5524 1.23063 10.4781 2.2096 10.852 3.11774ZM5.65284 9.51997C6.55866 9.89739 7.5388 9.82656 8.34939 9.41197C8.07184 8.54448 7.43196 7.80009 6.52614 7.42267C5.62033 7.04525 4.64019 7.11609 3.8296 7.52951C4.10715 8.397 4.74703 9.14255 5.65284 9.51997ZM25.4589 7.46564C24.5519 7.83957 23.9085 8.58165 23.6286 9.44797C24.4381 9.86604 25.417 9.94036 26.3252 9.56643C27.2322 9.19249 27.8755 8.45042 28.1554 7.58409C27.346 7.16602 26.3658 7.0917 25.4589 7.46564ZM23.0039 11.1202C21.7102 11.1179 20.5535 11.6974 19.7754 12.6113C20.55 13.5276 21.7044 14.1117 22.9981 14.1141C24.2917 14.1164 25.4484 13.5369 26.2265 12.623C25.453 11.7067 24.2976 11.1226 23.0039 11.1202ZM19.9043 6.58653C18.9881 7.49931 18.5793 8.72797 18.6757 9.92294C19.8707 10.0228 21.1005 9.61984 22.0179 8.70706C22.9342 7.79428 23.343 6.56563 23.2466 5.37066C22.0504 5.26962 20.8218 5.67375 19.9043 6.58653ZM8.99043 11.1202C7.69674 11.1226 6.5424 11.7067 5.76781 12.623C6.54473 13.5369 7.70254 14.1164 8.99623 14.1141C10.2899 14.1117 11.4443 13.5276 12.2188 12.6113C11.4408 11.6974 10.2841 11.1179 8.99043 11.1202ZM12.0899 6.58653C11.1737 5.67375 9.94386 5.27078 8.74771 5.37066C8.65133 6.56563 9.06011 7.79428 9.97637 8.70706C10.8926 9.61984 12.1236 10.0228 13.3186 9.92294C13.415 8.72681 13.0062 7.49931 12.0899 6.58653Z" fill="#686775"/>
</g>
<defs>
<clipPath id="clip0_280_55">
<rect width="61.0741" height="33.1574" fill="white" transform="translate(0.925903 0.421326)"/>
</clipPath>
</defs>
</svg>
